<mxfile host="65bd71144e">
    <diagram name="Страница — 1" id="Ao2z26YKdt-CEyVPgPMB">
        <mxGraphModel dx="2484" dy="2305" grid="0" gridSize="10" guides="1" tooltips="1" connect="1" arrows="1" fold="1" page="1" pageScale="1" pageWidth="827" pageHeight="1169" math="0" shadow="0">
            <root>
                <mxCell id="0"/>
                <mxCell id="1" parent="0"/>
                <mxCell id="38" value="" style="rounded=0;whiteSpace=wrap;html=1;strokeWidth=4;perimeterSpacing=10;strokeColor=#314354;opacity=90;fillColor=#647687;fontColor=#ffffff;" parent="1" vertex="1">
                    <mxGeometry x="378" y="-453" width="310.5" height="154" as="geometry"/>
                </mxCell>
                <mxCell id="10" value="" style="rounded=0;whiteSpace=wrap;html=1;strokeWidth=4;perimeterSpacing=10;strokeColor=#314354;opacity=90;fillColor=#647687;fontColor=#ffffff;" parent="1" vertex="1">
                    <mxGeometry x="572" y="78" width="255" height="501" as="geometry"/>
                </mxCell>
                <mxCell id="9" value="" style="rounded=0;whiteSpace=wrap;html=1;strokeWidth=4;perimeterSpacing=10;strokeColor=#314354;opacity=90;fillColor=#647687;fontColor=#ffffff;" parent="1" vertex="1">
                    <mxGeometry x="872" y="-162" width="550" height="225" as="geometry"/>
                </mxCell>
                <mxCell id="8" value="" style="rounded=0;whiteSpace=wrap;html=1;strokeWidth=4;perimeterSpacing=10;strokeColor=#314354;opacity=90;fillColor=#647687;fontColor=#ffffff;" parent="1" vertex="1">
                    <mxGeometry x="872" y="-512" width="520" height="240" as="geometry"/>
                </mxCell>
                <mxCell id="22" style="edgeStyle=none;html=1;exitX=1;exitY=0.5;exitDx=0;exitDy=0;entryX=0.153;entryY=0.002;entryDx=0;entryDy=0;entryPerimeter=0;" parent="1" source="9SHoVQrZI-vfcVUKv0su-1" target="9SHoVQrZI-vfcVUKv0su-2" edge="1">
                    <mxGeometry relative="1" as="geometry"/>
                </mxCell>
                <mxCell id="9SHoVQrZI-vfcVUKv0su-1" value="CLI" style="shape=hexagon;perimeter=hexagonPerimeter2;whiteSpace=wrap;html=1;fixedSize=1;fillColor=#fa6800;fontColor=#000000;strokeColor=#C73500;" parent="1" vertex="1">
                    <mxGeometry x="136" y="-306" width="120" height="80" as="geometry"/>
                </mxCell>
                <mxCell id="44" style="edgeStyle=none;html=1;exitX=0.845;exitY=0.031;exitDx=0;exitDy=0;entryX=0;entryY=0.5;entryDx=0;entryDy=0;exitPerimeter=0;" edge="1" parent="1" source="9SHoVQrZI-vfcVUKv0su-2" target="9SHoVQrZI-vfcVUKv0su-4">
                    <mxGeometry relative="1" as="geometry"/>
                </mxCell>
                <mxCell id="45" style="edgeStyle=none;html=1;exitX=1;exitY=0.25;exitDx=0;exitDy=0;entryX=0;entryY=0.5;entryDx=0;entryDy=0;" edge="1" parent="1" source="9SHoVQrZI-vfcVUKv0su-2" target="9SHoVQrZI-vfcVUKv0su-17">
                    <mxGeometry relative="1" as="geometry"/>
                </mxCell>
                <mxCell id="46" style="edgeStyle=none;html=1;exitX=0.875;exitY=0.88;exitDx=0;exitDy=0;entryX=0;entryY=0.5;entryDx=0;entryDy=0;exitPerimeter=0;" edge="1" parent="1" source="9SHoVQrZI-vfcVUKv0su-2" target="9SHoVQrZI-vfcVUKv0su-16">
                    <mxGeometry relative="1" as="geometry"/>
                </mxCell>
                <mxCell id="47" style="edgeStyle=none;html=1;exitX=1;exitY=0.75;exitDx=0;exitDy=0;entryX=0;entryY=0.25;entryDx=0;entryDy=0;" edge="1" parent="1" source="9SHoVQrZI-vfcVUKv0su-2" target="9SHoVQrZI-vfcVUKv0su-18">
                    <mxGeometry relative="1" as="geometry"/>
                </mxCell>
                <mxCell id="52" style="edgeStyle=none;html=1;exitX=0.5;exitY=1;exitDx=0;exitDy=0;entryX=0.5;entryY=0;entryDx=0;entryDy=0;" edge="1" parent="1" source="9SHoVQrZI-vfcVUKv0su-2" target="9SHoVQrZI-vfcVUKv0su-19">
                    <mxGeometry relative="1" as="geometry"/>
                </mxCell>
                <mxCell id="55" style="edgeStyle=none;html=1;exitX=0.625;exitY=1;exitDx=0;exitDy=0;entryX=0.5;entryY=0;entryDx=0;entryDy=0;" edge="1" parent="1" source="9SHoVQrZI-vfcVUKv0su-2" target="28">
                    <mxGeometry relative="1" as="geometry"/>
                </mxCell>
                <mxCell id="56" style="edgeStyle=none;html=1;exitX=0.375;exitY=1;exitDx=0;exitDy=0;entryX=0.5;entryY=0;entryDx=0;entryDy=0;" edge="1" parent="1" source="9SHoVQrZI-vfcVUKv0su-2" target="9SHoVQrZI-vfcVUKv0su-15">
                    <mxGeometry relative="1" as="geometry"/>
                </mxCell>
                <mxCell id="9SHoVQrZI-vfcVUKv0su-2" value="Backend" style="shape=hexagon;perimeter=hexagonPerimeter2;whiteSpace=wrap;html=1;fixedSize=1;fillColor=#fa6800;fontColor=#000000;strokeColor=#C73500;" parent="1" vertex="1">
                    <mxGeometry x="548" y="-178" width="120" height="80" as="geometry"/>
                </mxCell>
                <mxCell id="9SHoVQrZI-vfcVUKv0su-4" value="Авторизация" style="shape=hexagon;perimeter=hexagonPerimeter2;whiteSpace=wrap;html=1;fixedSize=1;fillColor=#6d8764;fontColor=#ffffff;strokeColor=#3A5431;" parent="1" vertex="1">
                    <mxGeometry x="892" y="-502" width="120" height="80" as="geometry"/>
                </mxCell>
                <mxCell id="21" style="edgeStyle=none;html=1;exitX=1;exitY=0.5;exitDx=0;exitDy=0;entryX=0;entryY=0.5;entryDx=0;entryDy=0;entryPerimeter=0;" parent="1" source="9SHoVQrZI-vfcVUKv0su-6" target="20" edge="1">
                    <mxGeometry relative="1" as="geometry"/>
                </mxCell>
                <mxCell id="42" style="edgeStyle=none;html=1;exitX=1;exitY=0.25;exitDx=0;exitDy=0;entryX=-0.001;entryY=0.822;entryDx=0;entryDy=0;entryPerimeter=0;" parent="1" source="9SHoVQrZI-vfcVUKv0su-6" edge="1">
                    <mxGeometry relative="1" as="geometry"/>
                </mxCell>
                <mxCell id="9SHoVQrZI-vfcVUKv0su-6" value="DAL&lt;div&gt;(customers)&lt;/div&gt;" style="shape=hexagon;perimeter=hexagonPerimeter2;whiteSpace=wrap;html=1;fixedSize=1;fillColor=#60a917;fontColor=#ffffff;strokeColor=#2D7600;" parent="1" vertex="1">
                    <mxGeometry x="1125" y="-402" width="120" height="80" as="geometry"/>
                </mxCell>
                <mxCell id="9SHoVQrZI-vfcVUKv0su-8" value="PSQL&lt;div&gt;(customers)&lt;/div&gt;" style="shape=cylinder3;whiteSpace=wrap;html=1;boundedLbl=1;backgroundOutline=1;size=15;fillColor=#d80073;fontColor=#ffffff;strokeColor=#A50040;" parent="1" vertex="1">
                    <mxGeometry x="1312" y="-476" width="60" height="80" as="geometry"/>
                </mxCell>
                <mxCell id="9SHoVQrZI-vfcVUKv0su-12" value="" style="endArrow=classic;html=1;rounded=0;entryX=0;entryY=0.5;entryDx=0;entryDy=0;entryPerimeter=0;exitX=1;exitY=0.5;exitDx=0;exitDy=0;" parent="1" source="9SHoVQrZI-vfcVUKv0su-6" target="9SHoVQrZI-vfcVUKv0su-8" edge="1">
                    <mxGeometry width="50" height="50" relative="1" as="geometry">
                        <mxPoint x="1152" y="-222" as="sourcePoint"/>
                        <mxPoint x="1202" y="-272" as="targetPoint"/>
                    </mxGeometry>
                </mxCell>
                <mxCell id="9SHoVQrZI-vfcVUKv0su-13" value="оплата" style="shape=hexagon;perimeter=hexagonPerimeter2;whiteSpace=wrap;html=1;fixedSize=1;fillColor=#f0a30a;fontColor=#000000;strokeColor=#BD7000;" parent="1" vertex="1">
                    <mxGeometry x="231" y="215.5" width="120" height="80" as="geometry"/>
                </mxCell>
                <mxCell id="9SHoVQrZI-vfcVUKv0su-14" value="заказ билета" style="shape=hexagon;perimeter=hexagonPerimeter2;whiteSpace=wrap;html=1;fixedSize=1;fillColor=#6d8764;strokeColor=#3A5431;fontColor=#ffffff;" parent="1" vertex="1">
                    <mxGeometry x="410" y="361.5" width="120" height="80" as="geometry"/>
                </mxCell>
                <mxCell id="57" style="edgeStyle=none;html=1;exitX=1;exitY=0.5;exitDx=0;exitDy=0;entryX=0;entryY=0.5;entryDx=0;entryDy=0;" edge="1" parent="1" source="9SHoVQrZI-vfcVUKv0su-15" target="9SHoVQrZI-vfcVUKv0su-19">
                    <mxGeometry relative="1" as="geometry"/>
                </mxCell>
                <mxCell id="9SHoVQrZI-vfcVUKv0su-15" value="корзина" style="shape=hexagon;perimeter=hexagonPerimeter2;whiteSpace=wrap;html=1;fixedSize=1;fillColor=#6d8764;fontColor=#ffffff;strokeColor=#3A5431;" parent="1" vertex="1">
                    <mxGeometry x="410" y="215.5" width="120" height="80" as="geometry"/>
                </mxCell>
                <mxCell id="9SHoVQrZI-vfcVUKv0su-16" value="просмотр&lt;div&gt;каталога&lt;/div&gt;" style="shape=hexagon;perimeter=hexagonPerimeter2;whiteSpace=wrap;html=1;fixedSize=1;fillColor=#6d8764;fontColor=#ffffff;strokeColor=#3A5431;" parent="1" vertex="1">
                    <mxGeometry x="902" y="-44" width="120" height="80" as="geometry"/>
                </mxCell>
                <mxCell id="9SHoVQrZI-vfcVUKv0su-17" value="Управление&lt;div&gt;пользователями&lt;/div&gt;" style="shape=hexagon;perimeter=hexagonPerimeter2;whiteSpace=wrap;html=1;fixedSize=1;fillColor=#6a00ff;fontColor=#ffffff;strokeColor=#3700CC;" parent="1" vertex="1">
                    <mxGeometry x="985" y="-402" width="120" height="80" as="geometry"/>
                </mxCell>
                <mxCell id="9SHoVQrZI-vfcVUKv0su-18" value="управление&lt;div&gt;рейсами&lt;/div&gt;" style="shape=hexagon;perimeter=hexagonPerimeter2;whiteSpace=wrap;html=1;fixedSize=1;fillColor=#6a00ff;fontColor=#ffffff;strokeColor=#3700CC;" parent="1" vertex="1">
                    <mxGeometry x="1034" y="-95" width="120" height="80" as="geometry"/>
                </mxCell>
                <mxCell id="53" style="edgeStyle=none;html=1;exitX=0.5;exitY=1;exitDx=0;exitDy=0;entryX=0.5;entryY=0;entryDx=0;entryDy=0;" edge="1" parent="1" source="9SHoVQrZI-vfcVUKv0su-19" target="HxSwZKT3O60TEKE-XJKh-10">
                    <mxGeometry relative="1" as="geometry"/>
                </mxCell>
                <mxCell id="9SHoVQrZI-vfcVUKv0su-19" value="управление&lt;div&gt;билетами&lt;/div&gt;" style="shape=hexagon;perimeter=hexagonPerimeter2;whiteSpace=wrap;html=1;fixedSize=1;fillColor=#6a00ff;fontColor=#ffffff;strokeColor=#3700CC;" parent="1" vertex="1">
                    <mxGeometry x="639.5" y="215" width="120" height="80" as="geometry"/>
                </mxCell>
                <mxCell id="9SHoVQrZI-vfcVUKv0su-20" value="" style="endArrow=classic;html=1;rounded=0;exitX=1;exitY=0.5;exitDx=0;exitDy=0;entryX=0;entryY=0.5;entryDx=0;entryDy=0;" parent="1" source="9SHoVQrZI-vfcVUKv0su-17" target="9SHoVQrZI-vfcVUKv0su-6" edge="1">
                    <mxGeometry width="50" height="50" relative="1" as="geometry">
                        <mxPoint x="772" y="-142" as="sourcePoint"/>
                        <mxPoint x="822" y="-192" as="targetPoint"/>
                    </mxGeometry>
                </mxCell>
                <mxCell id="19" style="edgeStyle=none;html=1;exitX=1;exitY=0.5;exitDx=0;exitDy=0;entryX=0;entryY=0.5;entryDx=0;entryDy=0;entryPerimeter=0;" parent="1" source="HxSwZKT3O60TEKE-XJKh-7" target="18" edge="1">
                    <mxGeometry relative="1" as="geometry"/>
                </mxCell>
                <mxCell id="HxSwZKT3O60TEKE-XJKh-7" value="DAL&lt;div&gt;(flights&lt;span style=&quot;background-color: initial;&quot;&gt;)&lt;/span&gt;&lt;/div&gt;" style="shape=hexagon;perimeter=hexagonPerimeter2;whiteSpace=wrap;html=1;fixedSize=1;fillColor=#60a917;fontColor=#ffffff;strokeColor=#2D7600;" parent="1" vertex="1">
                    <mxGeometry x="1178" y="-95" width="120" height="80" as="geometry"/>
                </mxCell>
                <mxCell id="HxSwZKT3O60TEKE-XJKh-8" value="PSQL&lt;div&gt;(flights)&lt;/div&gt;" style="shape=cylinder3;whiteSpace=wrap;html=1;boundedLbl=1;backgroundOutline=1;size=15;fillColor=#d80073;fontColor=#ffffff;strokeColor=#A50040;" parent="1" vertex="1">
                    <mxGeometry x="1340" y="-141" width="60" height="80" as="geometry"/>
                </mxCell>
                <mxCell id="HxSwZKT3O60TEKE-XJKh-9" value="" style="endArrow=classic;html=1;rounded=0;entryX=0;entryY=0.5;entryDx=0;entryDy=0;entryPerimeter=0;exitX=1;exitY=0.5;exitDx=0;exitDy=0;" parent="1" source="HxSwZKT3O60TEKE-XJKh-7" target="HxSwZKT3O60TEKE-XJKh-8" edge="1">
                    <mxGeometry width="50" height="50" relative="1" as="geometry">
                        <mxPoint x="1014" y="158" as="sourcePoint"/>
                        <mxPoint x="1064" y="108" as="targetPoint"/>
                    </mxGeometry>
                </mxCell>
                <mxCell id="HxSwZKT3O60TEKE-XJKh-10" value="DAL&lt;div&gt;(tickets&lt;span style=&quot;background-color: initial;&quot;&gt;)&lt;/span&gt;&lt;/div&gt;" style="shape=hexagon;perimeter=hexagonPerimeter2;whiteSpace=wrap;html=1;fixedSize=1;fillColor=#60a917;fontColor=#ffffff;strokeColor=#2D7600;" parent="1" vertex="1">
                    <mxGeometry x="639.5" y="344" width="120" height="80" as="geometry"/>
                </mxCell>
                <mxCell id="HxSwZKT3O60TEKE-XJKh-11" value="PSQL&lt;div&gt;(tickets)&lt;/div&gt;" style="shape=cylinder3;whiteSpace=wrap;html=1;boundedLbl=1;backgroundOutline=1;size=15;fillColor=#d80073;fontColor=#ffffff;strokeColor=#A50040;" parent="1" vertex="1">
                    <mxGeometry x="606.5" y="475" width="60" height="80" as="geometry"/>
                </mxCell>
                <mxCell id="HxSwZKT3O60TEKE-XJKh-12" value="" style="endArrow=classic;html=1;rounded=0;entryX=0.5;entryY=0;entryDx=0;entryDy=0;entryPerimeter=0;exitX=0.5;exitY=1;exitDx=0;exitDy=0;" parent="1" source="HxSwZKT3O60TEKE-XJKh-10" target="HxSwZKT3O60TEKE-XJKh-11" edge="1">
                    <mxGeometry width="50" height="50" relative="1" as="geometry">
                        <mxPoint x="1013.5" y="773" as="sourcePoint"/>
                        <mxPoint x="1063.5" y="723" as="targetPoint"/>
                    </mxGeometry>
                </mxCell>
                <mxCell id="HxSwZKT3O60TEKE-XJKh-13" value="" style="endArrow=classic;html=1;rounded=0;entryX=0;entryY=0.5;entryDx=0;entryDy=0;exitX=1;exitY=0.5;exitDx=0;exitDy=0;" parent="1" source="9SHoVQrZI-vfcVUKv0su-18" target="HxSwZKT3O60TEKE-XJKh-7" edge="1">
                    <mxGeometry width="50" height="50" relative="1" as="geometry">
                        <mxPoint x="1044" y="18" as="sourcePoint"/>
                        <mxPoint x="1094" y="-32" as="targetPoint"/>
                    </mxGeometry>
                </mxCell>
                <mxCell id="HxSwZKT3O60TEKE-XJKh-14" value="" style="endArrow=classic;html=1;rounded=0;exitX=1;exitY=0.5;exitDx=0;exitDy=0;entryX=0.101;entryY=0.79;entryDx=0;entryDy=0;entryPerimeter=0;" parent="1" source="9SHoVQrZI-vfcVUKv0su-16" target="9SHoVQrZI-vfcVUKv0su-18" edge="1">
                    <mxGeometry width="50" height="50" relative="1" as="geometry">
                        <mxPoint x="894" y="178" as="sourcePoint"/>
                        <mxPoint x="944" y="128" as="targetPoint"/>
                    </mxGeometry>
                </mxCell>
                <mxCell id="HxSwZKT3O60TEKE-XJKh-15" value="" style="endArrow=classic;html=1;rounded=0;exitX=0.5;exitY=1;exitDx=0;exitDy=0;entryX=0.625;entryY=0;entryDx=0;entryDy=0;" parent="1" source="28" target="9SHoVQrZI-vfcVUKv0su-19" edge="1">
                    <mxGeometry width="50" height="50" relative="1" as="geometry">
                        <mxPoint x="683.5" y="633" as="sourcePoint"/>
                        <mxPoint x="733.5" y="583" as="targetPoint"/>
                    </mxGeometry>
                </mxCell>
                <mxCell id="2" value="" style="endArrow=classic;html=1;exitX=0;exitY=0.5;exitDx=0;exitDy=0;entryX=1;entryY=0.5;entryDx=0;entryDy=0;" parent="1" source="9SHoVQrZI-vfcVUKv0su-15" target="9SHoVQrZI-vfcVUKv0su-13" edge="1">
                    <mxGeometry width="50" height="50" relative="1" as="geometry">
                        <mxPoint x="368" y="739.5" as="sourcePoint"/>
                        <mxPoint x="418" y="689.5" as="targetPoint"/>
                    </mxGeometry>
                </mxCell>
                <mxCell id="4" value="" style="endArrow=classic;html=1;entryX=0.5;entryY=1;entryDx=0;entryDy=0;exitX=0.5;exitY=0;exitDx=0;exitDy=0;" parent="1" source="9SHoVQrZI-vfcVUKv0su-14" target="9SHoVQrZI-vfcVUKv0su-15" edge="1">
                    <mxGeometry width="50" height="50" relative="1" as="geometry">
                        <mxPoint x="448" y="489.5" as="sourcePoint"/>
                        <mxPoint x="498" y="439.5" as="targetPoint"/>
                    </mxGeometry>
                </mxCell>
                <mxCell id="14" value="" style="endArrow=classic;html=1;exitX=1;exitY=0.5;exitDx=0;exitDy=0;entryX=0.5;entryY=0;entryDx=0;entryDy=0;" parent="1" source="9SHoVQrZI-vfcVUKv0su-4" target="9SHoVQrZI-vfcVUKv0su-17" edge="1">
                    <mxGeometry width="50" height="50" relative="1" as="geometry">
                        <mxPoint x="1075" y="-372" as="sourcePoint"/>
                        <mxPoint x="1125" y="-422" as="targetPoint"/>
                    </mxGeometry>
                </mxCell>
                <mxCell id="16" value="MongoDB&lt;div&gt;(tickets)&lt;/div&gt;" style="shape=cylinder3;whiteSpace=wrap;html=1;boundedLbl=1;backgroundOutline=1;size=15;fillColor=#d80073;fontColor=#ffffff;strokeColor=#A50040;" parent="1" vertex="1">
                    <mxGeometry x="732.5" y="475" width="60" height="80" as="geometry"/>
                </mxCell>
                <mxCell id="17" value="" style="endArrow=classic;html=1;exitX=0.5;exitY=1;exitDx=0;exitDy=0;entryX=0.5;entryY=0;entryDx=0;entryDy=0;entryPerimeter=0;" parent="1" source="HxSwZKT3O60TEKE-XJKh-10" target="16" edge="1">
                    <mxGeometry width="50" height="50" relative="1" as="geometry">
                        <mxPoint x="706.5" y="453" as="sourcePoint"/>
                        <mxPoint x="756.5" y="403" as="targetPoint"/>
                    </mxGeometry>
                </mxCell>
                <mxCell id="18" value="MongoDB&lt;br&gt;&lt;div&gt;(flights)&lt;/div&gt;" style="shape=cylinder3;whiteSpace=wrap;html=1;boundedLbl=1;backgroundOutline=1;size=15;fillColor=#d80073;fontColor=#ffffff;strokeColor=#A50040;" parent="1" vertex="1">
                    <mxGeometry x="1340" y="-33" width="60" height="80" as="geometry"/>
                </mxCell>
                <mxCell id="20" value="MongoDB&lt;div&gt;(customers)&lt;/div&gt;" style="shape=cylinder3;whiteSpace=wrap;html=1;boundedLbl=1;backgroundOutline=1;size=15;fillColor=#d80073;fontColor=#ffffff;strokeColor=#A50040;" parent="1" vertex="1">
                    <mxGeometry x="1312" y="-372" width="60" height="80" as="geometry"/>
                </mxCell>
                <mxCell id="25" style="edgeStyle=none;html=1;exitX=1;exitY=0.5;exitDx=0;exitDy=0;entryX=0;entryY=0.5;entryDx=0;entryDy=0;" parent="1" source="23" target="9SHoVQrZI-vfcVUKv0su-2" edge="1">
                    <mxGeometry relative="1" as="geometry">
                        <mxPoint x="480" y="-132" as="targetPoint"/>
                    </mxGeometry>
                </mxCell>
                <mxCell id="23" value="GUI (Web)" style="shape=hexagon;perimeter=hexagonPerimeter2;whiteSpace=wrap;html=1;fixedSize=1;fillColor=#fa6800;fontColor=#000000;strokeColor=#C73500;" parent="1" vertex="1">
                    <mxGeometry x="136" y="-193" width="120" height="80" as="geometry"/>
                </mxCell>
                <mxCell id="26" style="edgeStyle=none;html=1;exitX=1;exitY=0.5;exitDx=0;exitDy=0;entryX=0.169;entryY=1.005;entryDx=0;entryDy=0;entryPerimeter=0;" parent="1" source="24" target="9SHoVQrZI-vfcVUKv0su-2" edge="1">
                    <mxGeometry relative="1" as="geometry">
                        <mxPoint x="501" y="-88" as="targetPoint"/>
                    </mxGeometry>
                </mxCell>
                <mxCell id="24" value="Test" style="shape=hexagon;perimeter=hexagonPerimeter2;whiteSpace=wrap;html=1;fixedSize=1;fillColor=#fa6800;fontColor=#000000;strokeColor=#C73500;" parent="1" vertex="1">
                    <mxGeometry x="136" y="-80" width="120" height="80" as="geometry"/>
                </mxCell>
                <mxCell id="28" value="просмотр билетов" style="shape=hexagon;perimeter=hexagonPerimeter2;whiteSpace=wrap;html=1;fixedSize=1;fillColor=#6d8764;strokeColor=#3A5431;fontColor=#ffffff;" parent="1" vertex="1">
                    <mxGeometry x="693" y="107" width="120" height="80" as="geometry"/>
                </mxCell>
                <mxCell id="33" value="Управление&lt;br&gt;кэшом" style="shape=hexagon;perimeter=hexagonPerimeter2;whiteSpace=wrap;html=1;fixedSize=1;" parent="1" vertex="1">
                    <mxGeometry x="549" y="-416" width="120" height="80" as="geometry"/>
                </mxCell>
                <mxCell id="34" value="Cache" style="shape=hexagon;perimeter=hexagonPerimeter2;whiteSpace=wrap;html=1;fixedSize=1;" parent="1" vertex="1">
                    <mxGeometry x="395" y="-416" width="120" height="80" as="geometry"/>
                </mxCell>
                <mxCell id="35" value="" style="endArrow=classic;html=1;exitX=0;exitY=0.5;exitDx=0;exitDy=0;entryX=1;entryY=0.5;entryDx=0;entryDy=0;" parent="1" source="33" target="34" edge="1">
                    <mxGeometry width="50" height="50" relative="1" as="geometry">
                        <mxPoint x="761" y="-503" as="sourcePoint"/>
                        <mxPoint x="811" y="-553" as="targetPoint"/>
                    </mxGeometry>
                </mxCell>
                <mxCell id="37" value="" style="endArrow=classic;html=1;entryX=0.5;entryY=1;entryDx=0;entryDy=0;exitX=0.5;exitY=0;exitDx=0;exitDy=0;" parent="1" source="9SHoVQrZI-vfcVUKv0su-2" target="33" edge="1">
                    <mxGeometry width="50" height="50" relative="1" as="geometry">
                        <mxPoint x="701" y="-181" as="sourcePoint"/>
                        <mxPoint x="924" y="320" as="targetPoint"/>
                    </mxGeometry>
                </mxCell>
            </root>
        </mxGraphModel>
    </diagram>
</mxfile>